<?xml version="1.0" encoding="UTF-8"?>
<!-- Generator: Adobe Illustrator 19.0.0, SVG Export Plug-In . SVG Version: 6.00 Build 0)  -->
<svg width="299.32" height="299.32" version="1.1" viewBox="0 0 299.32 299.32" xml:space="preserve" xmlns="http://www.w3.org/2000/svg" xmlns:cc="http://creativecommons.org/ns#" xmlns:dc="http://purl.org/dc/elements/1.1/" xmlns:rdf="http://www.w3.org/1999/02/22-rdf-syntax-ns#"><metadata><rdf:RDF><cc:Work rdf:about=""><dc:format>image/svg+xml</dc:format><dc:type rdf:resource="http://purl.org/dc/dcmitype/StillImage"/><dc:title/></cc:Work></rdf:RDF></metadata><g><path d="m149.66 0a149.66 149.66 0 0 0-149.66 149.66 149.66 149.66 0 0 0 149.66 149.66 149.66 149.66 0 0 0 149.66-149.66 149.66 149.66 0 0 0-149.66-149.66zm-0.90039 52.135a38.202 38.202 0 0 1 38.203 38.201 38.202 38.202 0 0 1-38.203 38.201 38.202 38.202 0 0 1-38.201-38.201 38.202 38.202 0 0 1 38.201-38.201zm-2e-3 93.479c42.445 0 76.852 26.158 76.852 58.426s-34.407 25.168-76.852 25.168-76.854 7.0997-76.854-25.168c5e-6 -32.268 34.409-58.426 76.854-58.426z"/></g></svg>
